<?xml version="1.0" encoding="utf-8"?>
<!-- Generator: Adobe Illustrator 23.0.4, SVG Export Plug-In . SVG Version: 6.00 Build 0)  -->
<svg version="1.1" id="Layer_1" xmlns="http://www.w3.org/2000/svg" xmlns:xlink="http://www.w3.org/1999/xlink" x="0px" y="0px"
	 viewBox="0 0 1242 863" style="enable-background:new 0 0 1242 863;" xml:space="preserve">
<style type="text/css">
	.st0{fill:url(#SVGID_1_);}
	.st1{fill:url(#SVGID_2_);}
	.st2{fill:#224081;}
	.st3{fill:url(#SVGID_3_);}
	.st4{fill:url(#SVGID_4_);}
	.st5{fill:url(#SVGID_5_);}
	.st6{fill:url(#SVGID_6_);}
	.st7{fill:#EE2439;}
	.st8{fill:#ED2227;}
	.st9{fill:url(#SVGID_7_);}
	.st10{fill:url(#SVGID_8_);}
	.st11{fill:#F26D24;}
	.st12{fill:url(#SVGID_9_);}
	.st13{fill:url(#SVGID_10_);}
	.st14{fill:url(#SVGID_11_);}
	.st15{fill:#F8B718;}
	.st16{fill:url(#SVGID_12_);}
	.st17{fill:url(#SVGID_13_);}
	.st18{fill:url(#SVGID_14_);}
	.st19{fill:#3DB14A;}
	.st20{fill:url(#SVGID_15_);}
	.st21{fill:url(#SVGID_16_);}
	.st22{fill:url(#SVGID_17_);}
	.st23{fill:#05A6E0;}
	.st24{fill:url(#SVGID_18_);}
	.st25{fill:url(#SVGID_19_);}
	.st26{fill:url(#SVGID_20_);}
	.st27{fill:#9D2A90;}
	.st28{fill:url(#SVGID_21_);}
	.st29{fill:#A54F9E;}
</style>
<g>
	<linearGradient id="SVGID_1_" gradientUnits="userSpaceOnUse" x1="621" y1="863" x2="621" y2="-9.094947e-13">
		<stop  offset="0" style="stop-color:#2E3183"/>
		<stop  offset="0.2473" style="stop-color:#2C337B"/>
		<stop  offset="0.5465" style="stop-color:#202455"/>
		<stop  offset="0.7212" style="stop-color:#0B173B"/>
		<stop  offset="0.8988" style="stop-color:#0E1621"/>
	</linearGradient>
	<polygon class="st0" points="0,0 0,482.8 379.9,482.8 379.9,863 862.1,863 862.1,482.8 1242,482.8 1242,0 	"/>
	<linearGradient id="SVGID_2_" gradientUnits="userSpaceOnUse" x1="0" y1="431.5" x2="1242" y2="431.5">
		<stop  offset="5.000000e-02" style="stop-color:#5E80C0"/>
		<stop  offset="0.3308" style="stop-color:#3F62AD"/>
		<stop  offset="0.5043" style="stop-color:#254998"/>
		<stop  offset="0.6727" style="stop-color:#253570"/>
		<stop  offset="0.8737" style="stop-color:#17214A"/>
		<stop  offset="1" style="stop-color:#0B1630"/>
	</linearGradient>
	<path class="st1" d="M1187,55v372.8H862.1h-55v55V808H434.9V482.8v-55h-55H55V55H1187 M1242,0H0v482.8h379.9V863h482.2V482.8H1242
		V0L1242,0z"/>
	<path class="st2" d="M1192,50v382.8H862.1h-50v50V813H429.9V482.8v-50h-50H50V50H1192 M1242,0H0v482.8h379.9V863h482.2V482.8H1242
		V0L1242,0z"/>
	<linearGradient id="SVGID_3_" gradientUnits="userSpaceOnUse" x1="621" y1="863" x2="621" y2="-9.094947e-13">
		<stop  offset="0" style="stop-color:#557CBE"/>
		<stop  offset="0.4504" style="stop-color:#3B64AE"/>
		<stop  offset="0.7413" style="stop-color:#1F4487"/>
		<stop  offset="1" style="stop-color:#1C2754"/>
	</linearGradient>
	<path class="st3" d="M1197,45v392.8H862.1h-45v45V818H424.9V482.8v-45h-45H45V45H1197 M1242,0H0v482.8h379.9V863h482.2V482.8H1242
		V0L1242,0z"/>
	<path class="st2" d="M1232,10v462.8H862.1h-10v10V853H389.9V482.8v-10h-10H10V10H1232 M1242,0H0v482.8h379.9V863h482.2V482.8H1242
		V0L1242,0z"/>
	<linearGradient id="SVGID_4_" gradientUnits="userSpaceOnUse" x1="0" y1="431.5" x2="1242" y2="431.5">
		<stop  offset="5.000000e-02" style="stop-color:#5E80C0"/>
		<stop  offset="0.3308" style="stop-color:#3F62AD"/>
		<stop  offset="0.5043" style="stop-color:#254998"/>
		<stop  offset="0.6727" style="stop-color:#253570"/>
		<stop  offset="0.8737" style="stop-color:#17214A"/>
		<stop  offset="1" style="stop-color:#0B1630"/>
	</linearGradient>
	<path class="st4" d="M1237,5v472.8H862.1h-5v5V858H384.9V482.8v-5h-5H5V5H1237 M1242,0H0v482.8h379.9V863h482.2V482.8H1242V0
		L1242,0z"/>
</g>
<g>
	<g>
		<linearGradient id="SVGID_5_" gradientUnits="userSpaceOnUse" x1="182.8652" y1="106.319" x2="182.8652" y2="297.0097">
			<stop  offset="9.011765e-02" style="stop-color:#EE3247"/>
			<stop  offset="0.5125" style="stop-color:#EF4B67"/>
		</linearGradient>
		<polygon class="st5" points="151.2,384.1 151.2,164.5 98.9,164.5 98.9,100.6 266.8,100.6 266.8,164.5 214.5,164.5 214.5,384.1 		
			"/>
		<linearGradient id="SVGID_6_" gradientUnits="userSpaceOnUse" x1="92.9203" y1="242.3921" x2="272.8099" y2="242.3921">
			<stop  offset="0" style="stop-color:#EF4C6B"/>
			<stop  offset="0.5915" style="stop-color:#EE2E3E"/>
			<stop  offset="1" style="stop-color:#E62227"/>
		</linearGradient>
		<path class="st6" d="M260.8,106.6v51.9h-52.3v219.6h-51.3V158.5h-52.3v-51.9H260.8 M272.8,94.6h-12H104.9h-12v12v51.9v12h12h40.3
			v207.6v12h12h51.3h12v-12V170.5h40.3h12v-12v-51.9V94.6L272.8,94.6z"/>
		<path class="st7" d="M260.8,106.6v51.9h-52.3v219.6h-51.3V158.5h-52.3v-51.9H260.8 M266.8,100.6h-6H104.9h-6v6v51.9v6h6h46.3
			v213.6v6h6h51.3h6v-6V164.5h46.3h6v-6v-51.9V100.6L266.8,100.6z"/>
		<path class="st8" d="M208.5,280.9c-17.2,4.6-34.3,9.5-51.3,14.7v82.6h51.3V280.9z"/>
	</g>
	<g>
		<linearGradient id="SVGID_7_" gradientUnits="userSpaceOnUse" x1="398.292" y1="384.1299" x2="398.292" y2="100.6499">
			<stop  offset="0.4575" style="stop-color:#FDD726"/>
			<stop  offset="0.6983" style="stop-color:#FDC11E"/>
			<stop  offset="0.9772" style="stop-color:#F58423"/>
		</linearGradient>
		<path class="st9" d="M348.5,384.1c-31.6,0-57.3-25.7-57.3-57.3V100.6H459v63.9H354.5v37.2h82.3l-36.4,63.9h-45.9v39.6
			c0,8.3,6.8,15.1,15.1,15.1h99.4l36.4,63.9H348.5z"/>
		<linearGradient id="SVGID_8_" gradientUnits="userSpaceOnUse" x1="285.14" y1="242.39" x2="515.7675" y2="242.39">
			<stop  offset="0" style="stop-color:#FDD726"/>
			<stop  offset="0.4741" style="stop-color:#F47F20"/>
			<stop  offset="0.9814" style="stop-color:#ED2A26"/>
		</linearGradient>
		<path class="st10" d="M453,106.7v51.8H348.5v49.2h77.9l-29.5,51.9h-48.4v45.6c0,11.7,9.4,21.1,21.1,21.1h96l29.5,51.9H348.5
			c-28.4,0-51.3-23-51.3-51.3V106.7H453 M465,94.7h-12H297.1h-12v12v220.1c0,34.9,28.4,63.3,63.3,63.3h146.6h20.6l-10.2-17.9
			L476,320.3l-3.5-6.1h-7h-96c-5,0-9.1-4.1-9.1-9.1v-33.6h36.4h7l3.5-6.1l29.5-51.9l10.2-17.9h-20.6h-65.9v-25.2H453h12v-12v-51.8
			V94.7L465,94.7z"/>
		<path class="st11" d="M453,106.7v51.8H348.5v49.2h77.9l-29.5,51.9h-48.4v45.6c0,11.7,9.4,21.1,21.1,21.1h96l29.5,51.9H348.5
			c-28.4,0-51.3-23-51.3-51.3V106.7H453 M459,100.7h-6H297.1h-6v6v220.1c0,31.6,25.7,57.3,57.3,57.3h146.6h10.3l-5.1-9l-29.5-51.9
			l-1.7-3h-3.5h-96c-8.3,0-15.1-6.8-15.1-15.1v-39.6h42.4h3.5l1.7-3l29.5-51.9l5.1-9h-10.3h-71.9v-37.2H453h6v-6v-51.8V100.7
			L459,100.7z"/>
		<linearGradient id="SVGID_9_" gradientUnits="userSpaceOnUse" x1="396.13" y1="378.13" x2="396.13" y2="241.9523">
			<stop  offset="0" style="stop-color:#EF4E23"/>
			<stop  offset="1" style="stop-color:#ED2726"/>
		</linearGradient>
		<path class="st12" d="M297.1,326.8c0,28.3,23,51.3,51.3,51.3h146.6l-29.5-51.9h-96c-11.7,0-21.1-9.5-21.1-21.1v-45.6h48.4
			l10.5-18.5c-37.2,5-74,11.3-110.3,18.8V326.8z"/>
	</g>
	<g>
		<linearGradient id="SVGID_10_" gradientUnits="userSpaceOnUse" x1="567.3049" y1="384.1348" x2="567.3049" y2="100.6494">
			<stop  offset="0.8071" style="stop-color:#FBE021"/>
			<stop  offset="0.8956" style="stop-color:#FDD625"/>
			<stop  offset="0.975" style="stop-color:#FFC824"/>
		</linearGradient>
		<polygon class="st13" points="535.6,384.1 535.6,164.5 483.4,164.5 483.4,100.6 651.2,100.6 651.2,164.5 599,164.5 599,384.1 		
			"/>
		<linearGradient id="SVGID_11_" gradientUnits="userSpaceOnUse" x1="477.3599" y1="242.3921" x2="657.2495" y2="242.3921">
			<stop  offset="0" style="stop-color:#EFE939"/>
			<stop  offset="1" style="stop-color:#F48721"/>
		</linearGradient>
		<path class="st14" d="M645.2,106.6v51.9H593v219.6h-51.3V158.5h-52.3v-51.9H645.2 M657.2,94.6h-12H489.4h-12v12v51.9v12h12h40.3
			v207.6v12h12H593h12v-12V170.5h40.3h12v-12v-51.9V94.6L657.2,94.6z"/>
		<path class="st15" d="M645.2,106.6v51.9H593v219.6h-51.3V158.5h-52.3v-51.9H645.2 M651.2,100.6h-6H489.4h-6v6v51.9v6h6h46.3v213.6
			v6h6H593h6v-6V164.5h46.3h6v-6v-51.9V100.6L651.2,100.6z"/>
		<linearGradient id="SVGID_12_" gradientUnits="userSpaceOnUse" x1="567.3047" y1="378.1349" x2="567.3047" y2="227.0923">
			<stop  offset="0" style="stop-color:#F9A41C"/>
			<stop  offset="0.4998" style="stop-color:#F7901F"/>
			<stop  offset="1" style="stop-color:#F58220"/>
		</linearGradient>
		<path class="st16" d="M541.6,228.8v149.3H593v-151C575.8,227.4,558.7,228,541.6,228.8z"/>
	</g>
	<g>
		<linearGradient id="SVGID_13_" gradientUnits="userSpaceOnUse" x1="769.0352" y1="384.1299" x2="769.0352" y2="100.6499">
			<stop  offset="0.5631" style="stop-color:#93C94E"/>
			<stop  offset="0.767" style="stop-color:#7BC144"/>
			<stop  offset="0.9768" style="stop-color:#56B947"/>
		</linearGradient>
		<path class="st17" d="M843.8,384.1l-97.2-160.9l14.2-19.4l11-15.2c2-2.7,3-5.8,3-9.1c0-7.8-6.1-14.4-13.9-15.1l-0.1,0
			c-0.3,0-0.7,0-1.1,0c-0.5,0-0.8,0-1.1,0l-0.3,0h-18.6v219.6h-63.3V100.6h121.8l0.2,0c30.7,2.1,54.9,26.8,56.3,57.6
			c0,0.9,0.1,1.8,0.1,2.8c0,12.2-3.6,23.9-10.4,33.9l-1.6,2.3l-20.3,28.4l39.4,65.5v93H843.8z"/>
		<linearGradient id="SVGID_14_" gradientUnits="userSpaceOnUse" x1="670.33" y1="242.39" x2="867.74" y2="242.39">
			<stop  offset="0" style="stop-color:#92C953"/>
			<stop  offset="0.5797" style="stop-color:#37AF4A"/>
			<stop  offset="1" style="stop-color:#1C7C3E"/>
		</linearGradient>
		<path class="st18" d="M797.9,106.7c27.5,1.9,49.4,24.2,50.7,51.8c0,0.8,0.1,1.6,0.1,2.5c0,11.3-3.5,21.8-9.4,30.5l-1.5,2
			c0,0.1-0.1,0.1-0.1,0.1l-22.6,31.6l40.6,67.4v85.3h-8.5l-93.4-154.6l11.8-16.2l11-15.2c2.6-3.5,4.2-7.9,4.2-12.6
			c0-11.1-8.5-20.2-19.4-21.1c-0.6-0.1-1.2-0.1-1.8-0.1c-0.6,0-1.2,0-1.8,0.1h-24.3v219.6h-51.3V106.7H797.9 M798.3,94.7h-0.4H682.3
			h-12v12v271.5v12h12h51.3h12v-12V233.3l91.3,151.1l3.5,5.8h6.8h8.5h12v-12v-85.3v-3.3l-1.7-2.9l-36.6-60.7l17.9-25.1l0,0l0.2-0.3
			l1.4-2l0.1-0.1l0.1-0.1c7.5-11,11.4-23.9,11.4-37.3c0-1,0-2.1-0.1-3.1c-1.5-33.7-28.1-61-61.9-63.2L798.3,94.7L798.3,94.7z
			 M745.7,170.5H758h0.6l0.6-0.1c0,0,0.2,0,0.5,0s0.5,0,0.5,0l0.1,0l0.1,0c4.7,0.4,8.4,4.4,8.4,9.1c0,2.5-1,4.4-1.8,5.4l-0.1,0.1
			l0,0.1l-11.1,15.2l-10.3,14.1V170.5L745.7,170.5z"/>
		<path class="st19" d="M797.9,106.7c27.5,1.9,49.4,24.2,50.7,51.8c0,0.8,0.1,1.6,0.1,2.5c0,11.3-3.5,21.8-9.4,30.5l-1.5,2
			c0,0.1-0.1,0.1-0.1,0.1l-22.6,31.6l40.6,67.5v85.3h-8.5l-93.4-154.6l11.8-16.2l11-15.2c2.6-3.5,4.2-7.9,4.2-12.7
			c0-11.1-8.5-20.2-19.4-21c-0.6-0.1-1.2-0.1-1.8-0.1c-0.6,0-1.2,0-1.8,0.1h-24.3v219.6h-51.3V106.7H797.9 M798.1,100.7h-0.2H682.3
			h-6v6v271.5v6h6h51.3h6v-6V164.5H758h0.3l0.3,0c0.3,0,0.7,0,1.1,0s0.8,0,1.1,0l0.1,0l0.1,0c7.8,0.6,13.9,7.3,13.9,15.1
			c0,3.3-1,6.4-3,9.1l0,0l0,0l-11,15.2L749,220l-2.3,3.2l2.1,3.4l93.4,154.6l1.8,2.9h3.4h8.5h6v-6v-85.3v-1.7l-0.9-1.4l-38.6-64.1
			l20.3-28.4l0,0l0.1-0.2l1.5-2l0-0.1l0-0.1c6.8-10,10.4-21.8,10.4-33.9c0-0.9,0-1.9-0.1-2.8c-1.4-30.7-25.6-55.5-56.3-57.5
			L798.1,100.7L798.1,100.7z"/>
		<linearGradient id="SVGID_15_" gradientUnits="userSpaceOnUse" x1="769.035" y1="378.13" x2="769.035" y2="228.0051">
			<stop  offset="0" style="stop-color:#1A9747"/>
			<stop  offset="0.4998" style="stop-color:#188442"/>
			<stop  offset="1" style="stop-color:#13713B"/>
		</linearGradient>
		<path class="st20" d="M733.7,378.1h-51.3V228c17.2,0.7,34.3,1.6,51.3,2.8V378.1z M847.2,378.1h8.5v-85.3l-32-53.2
			c-21.3-2.7-42.8-5-64.3-6.9L847.2,378.1z"/>
	</g>
	<g>
		<linearGradient id="SVGID_16_" gradientUnits="userSpaceOnUse" x1="918.1484" y1="384.1348" x2="918.1484" y2="100.6494">
			<stop  offset="0.4626" style="stop-color:#6BCBDA"/>
			<stop  offset="0.5514" style="stop-color:#6FCCDC"/>
			<stop  offset="0.7153" style="stop-color:#5FC9DE"/>
			<stop  offset="0.8759" style="stop-color:#35C4E7"/>
			<stop  offset="0.9788" style="stop-color:#08BAED"/>
		</linearGradient>
		<rect x="886.5" y="100.6" class="st21" width="63.3" height="283.5"/>
		<linearGradient id="SVGID_17_" gradientUnits="userSpaceOnUse" x1="880.4794" y1="242.3921" x2="955.8177" y2="242.3921">
			<stop  offset="0" style="stop-color:#66CADA"/>
			<stop  offset="0.4099" style="stop-color:#05BBEC"/>
			<stop  offset="0.7032" style="stop-color:#2384C5"/>
			<stop  offset="1" style="stop-color:#2D5EAA"/>
		</linearGradient>
		<path class="st22" d="M943.8,106.6v271.5h-51.3V106.6H943.8 M955.8,94.6h-12h-51.3h-12v12v271.5v12h12h51.3h12v-12V106.6V94.6
			L955.8,94.6z"/>
		<path class="st23" d="M943.8,106.6v271.5h-51.3V106.6H943.8 M949.8,100.6h-6h-51.3h-6v6v271.5v6h6h51.3h6v-6V106.6V100.6
			L949.8,100.6z"/>
		<linearGradient id="SVGID_18_" gradientUnits="userSpaceOnUse" x1="918.1486" y1="378.1349" x2="918.1486" y2="249.9233">
			<stop  offset="0" style="stop-color:#1F82C4"/>
			<stop  offset="0.4998" style="stop-color:#2970B8"/>
			<stop  offset="0.9866" style="stop-color:#275CA9"/>
		</linearGradient>
		<path class="st24" d="M943.8,259.6c-17-3.5-34.1-6.7-51.3-9.7v128.2h51.3V259.6z"/>
	</g>
	<g>
		<linearGradient id="SVGID_19_" gradientUnits="userSpaceOnUse" x1="1057.145" y1="384.1299" x2="1057.145" y2="100.52">
			<stop  offset="0.2546" style="stop-color:#B95AA3"/>
			<stop  offset="0.4099" style="stop-color:#BD5AA2"/>
			<stop  offset="0.5841" style="stop-color:#BC59A2"/>
			<stop  offset="0.9653" style="stop-color:#A73E97"/>
		</linearGradient>
		<path class="st25" d="M976.1,384.1v-63.9h71.4c7.6,0,13.8-6.2,13.8-13.8c0-2.7-0.8-5.3-2.2-7.5l-0.1-0.1c-0.2-0.3-0.5-0.7-0.8-1.1
			l-0.3-0.4l-72.9-100.7c-7.6-10.4-11.6-22.7-11.6-35.6c0-33.3,27.1-60.5,60.5-60.5c1.4,0,2.7,0,3.9,0.1h100.5l-38,63.9h-31.2
			l-0.3,0c-0.3,0-0.7,0-1.2,0c-0.5,0-0.8,0-1.2,0l-0.1,0c-7.9,0.6-14.1,7.4-14.1,15.3c0,3.2,1,6.3,2.9,9l73.5,98.5
			c8,10.5,12.2,23.1,12.2,36.4c0,1,0,1.9-0.1,2.9c-1.5,32.3-28,57.6-60.4,57.6H976.1z"/>
		<linearGradient id="SVGID_20_" gradientUnits="userSpaceOnUse" x1="967.45" y1="242.325" x2="1148.8938" y2="242.325">
			<stop  offset="1.254012e-02" style="stop-color:#B958A1"/>
			<stop  offset="0.5102" style="stop-color:#982F92"/>
			<stop  offset="0.751" style="stop-color:#782773"/>
			<stop  offset="1" style="stop-color:#5C184F"/>
		</linearGradient>
		<path class="st26" d="M1033.9,106.5c1.2,0,2.5,0,3.7,0.1h90.1l-30.9,51.9h-27.5c-0.6-0.1-1.2-0.1-1.8-0.1s-1.2,0-1.8,0.1
			c-11,0.9-19.6,10.1-19.6,21.3c0,4.7,1.5,9,4.1,12.5l0.3,0.5l11.2,15l62,83.1c6.9,9.1,11,20.5,11,32.8c0,0.9,0,1.8-0.1,2.6
			c-1.4,28.9-25.2,51.9-54.4,51.9h-98.2v-51.9h65.4c10.9,0,19.8-8.9,19.8-19.8c0-4-1.2-7.7-3.2-10.8c-0.4-0.6-0.8-1.2-1.3-1.8
			l-0.1-0.1l-11.7-16.1l-61.2-84.6c-6.6-9-10.5-20.1-10.5-32.1C979.5,130.9,1003.8,106.5,1033.9,106.5 M1033.9,94.5
			c-36.6,0-66.5,29.8-66.5,66.5c0,14.2,4.4,27.8,12.8,39.2l61.2,84.6l11.7,16.1l0.1,0.1l0.1,0.1l0.1,0.1l0.2,0.2l0.2,0.2
			c0.2,0.3,0.3,0.4,0.4,0.5l0.1,0.1l0.1,0.1c0.8,1.3,1.2,2.7,1.2,4.2c0,4.3-3.5,7.8-7.8,7.8h-65.4h-12v12v51.9v12h12h98.2
			c35.6,0,64.7-27.8,66.4-63.3c0-1,0.1-2.1,0.1-3.2c0-14.6-4.6-28.4-13.4-40l-62-83.1l-11.2-15l0,0l0,0l-0.3-0.3
			c-0.8-1.1-1.7-3-1.7-5.4c0-4.8,3.8-8.9,8.6-9.3l0.1,0l0.1,0c0,0,0.2,0,0.5,0c0.3,0,0.5,0,0.6,0l0.6,0.1h0.6h27.5h6.8l3.5-5.9
			l30.9-51.8l10.8-18.1h-21.1h-89.7C1036.7,94.6,1035.3,94.5,1033.9,94.5L1033.9,94.5z"/>
		<path class="st27" d="M1033.9,106.5c1.2,0,2.5,0,3.7,0.1h90.1l-30.9,51.9h-27.5c-0.6-0.1-1.2-0.1-1.8-0.1s-1.2,0-1.8,0.1
			c-11,0.9-19.6,10.1-19.6,21.3c0,4.7,1.5,9,4.1,12.5l0.3,0.5l11.2,15l62,83.1c6.9,9.1,11,20.5,11,32.8c0,0.9,0,1.8-0.1,2.6
			c-1.4,28.9-25.2,51.9-54.4,51.9h-98.2v-51.9h65.4c10.9,0,19.8-8.9,19.8-19.8c0-4-1.2-7.7-3.2-10.8c-0.4-0.6-0.8-1.2-1.3-1.8
			l-0.1-0.1l-11.7-16.1l-61.2-84.6c-6.6-9-10.5-20.1-10.5-32.1C979.5,130.9,1003.8,106.5,1033.9,106.5 M1033.9,100.5
			c-33.3,0-60.5,27.1-60.5,60.5c0,12.9,4,25.3,11.6,35.7l61.2,84.6l11.7,16.1l0,0l0,0l0.1,0.1l0.1,0.1l0.1,0.1
			c0.3,0.4,0.6,0.8,0.8,1.1l0,0.1l0,0.1c1.5,2.2,2.2,4.8,2.2,7.5c0,7.6-6.2,13.8-13.8,13.8h-65.4h-6v6v51.9v6h6h98.2
			c32.3,0,58.9-25.3,60.4-57.6c0-1,0.1-1.9,0.1-2.9c0-13.3-4.2-25.9-12.2-36.5l-62-83.1l-11.2-15l-0.3-0.4c-1.9-2.6-2.9-5.7-2.9-9
			c0-7.9,6.2-14.6,14.1-15.3l0.1,0l0.1,0c0.3,0,0.7,0,1.2,0c0.5,0,0.8,0,1.2,0l0.3,0h0.3h27.5h3.4l1.7-2.9l30.9-51.8l5.4-9.1h-10.6
			h-89.9C1036.6,100.6,1035.3,100.5,1033.9,100.5L1033.9,100.5z"/>
		<linearGradient id="SVGID_21_" gradientUnits="userSpaceOnUse" x1="1058.485" y1="378.13" x2="1058.485" y2="287.7704">
			<stop  offset="0" style="stop-color:#7E2776"/>
			<stop  offset="0.5899" style="stop-color:#712367"/>
			<stop  offset="1" style="stop-color:#67205D"/>
		</linearGradient>
		<path class="st28" d="M1062.8,293.8L1062.8,293.8c0.5,0.6,0.9,1.2,1.3,1.8c2,3.1,3.2,6.8,3.2,10.8c0,11-8.9,19.8-19.8,19.8h-65.4
			v51.9h98.2c29.2,0,53-23,54.4-51.9c0-0.9,0.1-1.7,0.1-2.6c0-4.3-0.5-8.5-1.4-12.5c-24.7-8.4-49.7-16.2-74.9-23.4L1062.8,293.8z"/>
	</g>
	<path class="st29" d="M1160.6,157.5c-0.5-1.6-2.2-3-2.2-3s2.4-0.8,2.4-3.1c0-4.7-4.6-4.7-4.6-4.7h-7.7v14.7h3.9V156h2.4
		c0,0,1.1,1.1,1.7,2.2s0.9,3.1,0.9,3.1h4C1161.4,161.4,1161.2,159.1,1160.6,157.5z M1154.5,153.3h-2v-3.8h1.9c0,0,2.2,0,2.2,1.9
		C1156.5,153.3,1154.5,153.3,1154.5,153.3z M1154.5,139.1c-8.3,0-15,6.7-15,15c0,8.3,6.7,15,15,15s15-6.7,15-15
		C1169.5,145.8,1162.8,139.1,1154.5,139.1z M1154.5,165.3c-6.2,0-11.2-5-11.2-11.2c0-6.2,5-11.2,11.2-11.2s11.2,5,11.2,11.2
		C1165.7,160.3,1160.7,165.3,1154.5,165.3z"/>
</g>
</svg>
